<svg width="40" height="40" viewBox="0 0 40 40" fill="none" xmlns="http://www.w3.org/2000/svg">
<rect width="40" height="40" rx="8" fill="#F25244"/>
<g clip-path="url(#clip0_1555_897)">
<path d="M28.2667 8H11.7333C9.68 8 8 9.68 8 11.7333V28.2667C8 30.32 9.68 32 11.7333 32H16.3333C17.3867 32 18.2533 31.1467 18.2533 30.08V26.36C18.68 26.2267 18.9867 25.8133 18.9867 25.3467C18.9867 24.76 18.5067 24.28 17.92 24.28C15.7467 24.28 13.9867 22.5067 13.9867 20.3467C13.9867 19.3867 14.28 18.4533 14.8533 17.6533C15 17.4533 15.0667 17.2 15.04 16.9467L14.8667 14.8267L16.6133 15.7733C16.8533 15.9067 17.1467 15.9333 17.4 15.8667C17.88 15.7333 18.2667 15.6667 18.64 15.6667H21.3333C21.7067 15.6667 22.1067 15.7333 22.5733 15.8667C22.84 15.9333 23.12 15.9067 23.36 15.7733L25.1067 14.8267L24.9333 16.9467C24.92 17.2 24.9867 17.44 25.12 17.6533C25.68 18.4533 25.9867 19.3867 25.9867 20.3467C25.9867 22.52 24.2133 24.28 22.0533 24.28C21.4667 24.28 20.9867 24.76 20.9867 25.3467C20.9867 25.8267 21.2933 26.2267 21.72 26.36V30.08C21.72 31.1333 22.5733 32 23.64 32H28.24C30.2933 32 31.9733 30.32 31.9733 28.2667V11.7333C31.9733 9.68 30.2933 8 28.24 8H28.2667ZM29.8667 28.2667C29.8667 29.1467 29.1467 29.8667 28.2667 29.8667H23.88V26.1333C26.3467 25.36 28.1467 23.0533 28.1467 20.3333C28.1467 19.0667 27.7867 17.8267 27.1067 16.7467L27.28 14.6C27.3333 13.9067 27 13.2267 26.4133 12.84C25.8267 12.4533 25.08 12.4267 24.4533 12.76L22.72 13.6933C22.2267 13.5867 21.7733 13.5333 21.3333 13.5333H18.64C18.2 13.5333 17.7467 13.5867 17.2533 13.6933L15.52 12.76C14.9067 12.4267 14.1467 12.4533 13.56 12.84C12.9733 13.2267 12.64 13.8933 12.6933 14.6L12.8667 16.7467C12.1867 17.8267 11.8267 19.0667 11.8267 20.3333C11.8267 23.0533 13.6267 25.36 16.0933 26.1333V27.56C15.56 27.56 15.0533 27.3067 14.7467 26.8667L14.0267 25.88C13.52 25.1867 12.7067 24.7733 11.8533 24.7733C11.2667 24.7733 10.7867 25.2533 10.7867 25.84C10.7867 26.4267 11.2667 26.9067 11.8533 26.9067C12.0267 26.9067 12.2 26.9867 12.3067 27.1333L13.0267 28.12C13.7467 29.0933 14.8933 29.68 16.1067 29.68V29.84H11.72C10.84 29.84 10.12 29.12 10.12 28.24V11.7333C10.12 10.8533 10.84 10.1333 11.72 10.1333H28.2533C29.1333 10.1333 29.8533 10.8533 29.8533 11.7333V28.2667H29.8667Z" fill="#FCFAF8"/>
</g>
<defs>
<clipPath id="clip0_1555_897">
<rect width="32" height="32" fill="white" transform="translate(4 4)"/>
</clipPath>
</defs>
</svg>
