<svg width="40" height="40" viewBox="0 0 40 40" fill="none" xmlns="http://www.w3.org/2000/svg">
<rect width="40" height="40" rx="8" fill="#2F404F"/>
<g clip-path="url(#clip0_1555_1931)">
<path d="M26.2665 12C25.3065 12 24.5332 12.7733 24.5332 13.7333C24.5332 14.6933 25.3065 15.4667 26.2665 15.4667C27.2265 15.4667 27.9999 14.6933 27.9999 13.7333C27.9999 12.7733 27.2265 12 26.2665 12Z" fill="#FCFAF8"/>
<path d="M20 14.1334C16.76 14.1334 14.1333 16.76 14.1333 20C14.1333 23.24 16.76 25.8667 20 25.8667C23.24 25.8667 25.8666 23.24 25.8666 20C25.8666 16.76 23.24 14.1334 20 14.1334ZM20 23.7334C17.9466 23.7334 16.2666 22.0534 16.2666 20C16.2666 17.9467 17.9466 16.2667 20 16.2667C22.0533 16.2667 23.7333 17.9467 23.7333 20C23.7333 22.0534 22.0533 23.7334 20 23.7334Z" fill="#FCFAF8"/>
<path d="M24.2265 8H15.7865C11.4932 8 8.01318 11.4933 8.01318 15.7733V24.2133C8.01318 28.5067 11.5065 31.9867 15.7865 31.9867H24.2265C28.5198 31.9867 31.9999 28.4933 31.9999 24.2133V15.7733C31.9999 11.48 28.5065 8 24.2265 8ZM29.8665 24.2267C29.8665 27.3333 27.3332 29.8667 24.2265 29.8667H15.7865C12.6799 29.8667 10.1465 27.3333 10.1465 24.2267V15.7867C10.1465 12.68 12.6799 10.1467 15.7865 10.1467H24.2265C27.3332 10.1467 29.8665 12.68 29.8665 15.7867V24.2267Z" fill="#FCFAF8"/>
</g>
<defs>
<clipPath id="clip0_1555_1931">
<rect width="32" height="32" fill="white" transform="translate(4 4)"/>
</clipPath>
</defs>
</svg>
