<svg width="40" height="40" viewBox="0 0 40 40" fill="none" xmlns="http://www.w3.org/2000/svg">
<rect width="40" height="40" rx="8" fill="#2F404F"/>
<g clip-path="url(#clip0_1555_1923)">
<path d="M28.2667 32H11.7333C9.68 32 8 30.32 8 28.2667V11.7333C8 9.68 9.68 8 11.7333 8H28.2667C30.32 8 32 9.68 32 11.7333V28.2667C32 30.32 30.32 32 28.2667 32ZM11.7333 10.1333C10.8533 10.1333 10.1333 10.8533 10.1333 11.7333V28.2667C10.1333 29.1467 10.8533 29.8667 11.7333 29.8667H28.2667C29.1467 29.8667 29.8667 29.1467 29.8667 28.2667V11.7333C29.8667 10.8533 29.1467 10.1333 28.2667 10.1333H11.7333Z" fill="#FCFAF8"/>
<path fill-rule="evenodd" clip-rule="evenodd" d="M17.6533 17.6534H20.3067V19.0134H20.3333C20.7333 18.28 21.9333 17.5467 23.4133 17.5467C26.2533 17.5467 27.04 19.0534 27.04 21.84V27.0534H24.2267V22.3467C24.2267 21.0934 23.7333 20 22.56 20C21.1467 20 20.4667 20.96 20.4667 22.5334V27.0534H17.6533V17.6534Z" fill="#FCFAF8"/>
<path d="M15.7601 17.6533H12.9468V27.0533H15.7601V17.6533Z" fill="#FCFAF8"/>
<path d="M14.3601 16.12C15.3321 16.12 16.1201 15.332 16.1201 14.36C16.1201 13.388 15.3321 12.6 14.3601 12.6C13.3881 12.6 12.6001 13.388 12.6001 14.36C12.6001 15.332 13.3881 16.12 14.3601 16.12Z" fill="#FCFAF8"/>
</g>
<defs>
<clipPath id="clip0_1555_1923">
<rect width="32" height="32" fill="white" transform="translate(4 4)"/>
</clipPath>
</defs>
</svg>
