<svg width="149" height="25" viewBox="0 0 149 25" fill="none" xmlns="http://www.w3.org/2000/svg">
<path d="M13.656 4.656C13.56 4.816 13.4533 4.93867 13.336 5.024C13.2293 5.09867 13.096 5.136 12.936 5.136C12.7547 5.136 12.5413 5.04533 12.296 4.864C12.0507 4.68267 11.7413 4.48533 11.368 4.272C11.0053 4.048 10.5627 3.84533 10.04 3.664C9.528 3.48267 8.904 3.392 8.168 3.392C7.47467 3.392 6.86133 3.488 6.328 3.68C5.80533 3.86133 5.36267 4.112 5 4.432C4.648 4.752 4.38133 5.13067 4.2 5.568C4.01867 5.99467 3.928 6.45867 3.928 6.96C3.928 7.6 4.08267 8.13333 4.392 8.56C4.712 8.976 5.128 9.33333 5.64 9.632C6.16267 9.93067 6.74933 10.192 7.4 10.416C8.06133 10.6293 8.73333 10.8533 9.416 11.088C10.1093 11.3227 10.7813 11.5893 11.432 11.888C12.0933 12.176 12.68 12.544 13.192 12.992C13.7147 13.44 14.1307 13.9893 14.44 14.64C14.76 15.2907 14.92 16.0907 14.92 17.04C14.92 18.0427 14.7493 18.9867 14.408 19.872C14.0667 20.7467 13.5653 21.5093 12.904 22.16C12.2533 22.8107 11.448 23.3227 10.488 23.696C9.53867 24.0693 8.456 24.256 7.24 24.256C5.74667 24.256 4.392 23.9893 3.176 23.456C1.96 22.912 0.92 22.1813 0.056 21.264L0.952 19.792C1.03733 19.6747 1.13867 19.5787 1.256 19.504C1.384 19.4187 1.52267 19.376 1.672 19.376C1.81067 19.376 1.96533 19.4347 2.136 19.552C2.31733 19.6587 2.52 19.7973 2.744 19.968C2.968 20.1387 3.224 20.3253 3.512 20.528C3.8 20.7307 4.12533 20.9173 4.488 21.088C4.86133 21.2587 5.28267 21.4027 5.752 21.52C6.22133 21.6267 6.74933 21.68 7.336 21.68C8.072 21.68 8.728 21.5787 9.304 21.376C9.88 21.1733 10.3653 20.8907 10.76 20.528C11.1653 20.1547 11.4747 19.712 11.688 19.2C11.9013 18.688 12.008 18.1173 12.008 17.488C12.008 16.7947 11.848 16.2293 11.528 15.792C11.2187 15.344 10.808 14.9707 10.296 14.672C9.784 14.3733 9.19733 14.1227 8.536 13.92C7.87467 13.7067 7.20267 13.4933 6.52 13.28C5.83733 13.056 5.16533 12.8 4.504 12.512C3.84267 12.224 3.256 11.8507 2.744 11.392C2.232 10.9333 1.816 10.3627 1.496 9.68C1.18667 8.98667 1.032 8.13333 1.032 7.12C1.032 6.30933 1.18667 5.52533 1.496 4.768C1.816 4.01067 2.27467 3.33867 2.872 2.752C3.48 2.16533 4.22133 1.696 5.096 1.344C5.98133 0.991999 6.99467 0.815998 8.136 0.815998C9.416 0.815998 10.5787 1.01867 11.624 1.424C12.68 1.82933 13.608 2.416 14.408 3.184L13.656 4.656ZM33.159 1.472C32.1777 1.472 31.207 1.77066 30.247 2.368C29.3083 2.944 28.4337 3.75467 27.623 4.8C26.8123 5.824 26.0977 7.008 25.479 8.352C24.8603 9.67467 24.3697 11.0933 24.007 12.608C23.6657 14.1227 23.495 15.648 23.495 17.184C23.495 19.2747 23.9003 20.9173 24.711 22.112C25.543 23.2853 26.6097 23.872 27.911 23.872C28.8923 23.872 29.8523 23.584 30.791 23.008C31.751 22.4107 32.6363 21.6 33.447 20.576C34.2577 19.5307 34.9723 18.3467 35.591 17.024C36.2097 15.68 36.6897 14.2507 37.031 12.736C37.3937 11.2213 37.575 9.696 37.575 8.16C37.575 6.06933 37.159 4.43733 36.327 3.264C35.5163 2.06933 34.4603 1.472 33.159 1.472ZM20.103 16.768C20.103 15.36 20.3057 13.9093 20.711 12.416C21.1163 10.9227 21.703 9.49333 22.471 8.128C23.239 6.76267 24.167 5.536 25.255 4.448C26.3643 3.36 27.6017 2.496 28.967 1.856C30.3323 1.216 31.8257 0.895998 33.447 0.895998C35.815 0.895998 37.6603 1.568 38.983 2.912C40.327 4.23467 40.999 6.13333 40.999 8.608C40.999 10.016 40.7857 11.4667 40.359 12.96C39.9537 14.432 39.367 15.8507 38.599 17.216C37.831 18.5813 36.8923 19.808 35.783 20.896C34.695 21.984 33.4577 22.848 32.071 23.488C30.7057 24.128 29.223 24.448 27.623 24.448C25.255 24.448 23.4097 23.7867 22.087 22.464C20.7643 21.12 20.103 19.2213 20.103 16.768ZM55.4948 21.536C56.4441 21.536 57.2921 21.376 58.0388 21.056C58.7854 20.736 59.4148 20.288 59.9268 19.712C60.4494 19.136 60.8441 18.448 61.1108 17.648C61.3881 16.848 61.5268 15.968 61.5268 15.008V1.072H64.6148V15.008C64.6148 16.3307 64.4014 17.5573 63.9748 18.688C63.5588 19.8187 62.9561 20.8 62.1667 21.632C61.3881 22.4533 60.4334 23.0987 59.3028 23.568C58.1721 24.0373 56.9028 24.272 55.4948 24.272C54.0868 24.272 52.8174 24.0373 51.6868 23.568C50.5561 23.0987 49.5961 22.4533 48.8068 21.632C48.0174 20.8 47.4094 19.8187 46.9828 18.688C46.5668 17.5573 46.3588 16.3307 46.3588 15.008V1.072H49.4468V14.992C49.4468 15.952 49.5801 16.832 49.8468 17.632C50.1241 18.432 50.5188 19.12 51.0308 19.696C51.5534 20.272 52.1881 20.7253 52.9348 21.056C53.6921 21.376 54.5454 21.536 55.4948 21.536ZM85.186 21.392V24H72.178V1.072H75.266V21.392H85.186ZM103.12 3.68H95.6955V24H92.6075V3.68H85.1675V1.072H103.12V3.68ZM118.448 15.488L114.848 6.16C114.741 5.88267 114.629 5.56267 114.512 5.2C114.394 4.82667 114.282 4.432 114.176 4.016C113.952 4.88 113.722 5.6 113.488 6.176L109.888 15.488H118.448ZM124.912 24H122.512C122.234 24 122.01 23.9307 121.84 23.792C121.669 23.6533 121.541 23.4773 121.456 23.264L119.312 17.728H109.024L106.88 23.264C106.816 23.456 106.693 23.6267 106.512 23.776C106.33 23.9253 106.106 24 105.84 24H103.44L112.608 1.072H115.744L124.912 24ZM148.504 1.072V24H146.952C146.707 24 146.499 23.9573 146.328 23.872C146.168 23.7867 146.008 23.6427 145.848 23.44L132.584 6.16C132.605 6.42667 132.621 6.688 132.632 6.944C132.643 7.2 132.648 7.44 132.648 7.664V24H129.928V1.072H131.528C131.667 1.072 131.784 1.08267 131.88 1.104C131.976 1.11467 132.061 1.14133 132.136 1.184C132.211 1.216 132.285 1.26933 132.36 1.344C132.435 1.408 132.515 1.49333 132.6 1.6L145.864 18.864C145.843 18.5867 145.821 18.32 145.8 18.064C145.789 17.7973 145.784 17.5467 145.784 17.312V1.072H148.504Z" fill="#F2AEC7"/>
</svg>
