<svg width="40" height="40" viewBox="0 0 40 40" fill="none" xmlns="http://www.w3.org/2000/svg">
<rect width="40" height="40" rx="8" fill="#F25244"/>
<g clip-path="url(#clip0_1555_1931)">
<path d="M19.9866 32.1867C17.9732 32.1867 15.9999 31.68 14.2266 30.72C13.9199 30.5467 13.5332 30.5333 13.1732 30.6667L9.42655 32.12C8.99989 32.28 8.53322 32.16 8.23989 31.8267C7.94655 31.4933 7.89322 31 8.11989 30.6L9.74655 27.7067C9.97322 27.3067 9.95989 26.8 9.71989 26.3867C8.23989 23.9467 7.69322 21.1333 8.14655 18.2533C8.93322 13.24 12.9732 9.16 17.9732 8.34667C21.7199 7.73333 25.4266 8.84 28.1732 11.4C30.9199 13.9467 32.2932 17.56 31.9465 21.3067C31.4399 26.9333 26.9866 31.48 21.3732 32.1067C20.9066 32.16 20.4532 32.1867 19.9866 32.1867ZM13.6532 28.44C14.2132 28.44 14.7599 28.5733 15.2532 28.84C17.0399 29.8133 19.0666 30.2133 21.1332 29.9867C25.6666 29.48 29.3999 25.6667 29.8132 21.1067C30.0932 18.0267 28.9599 15.0533 26.7066 12.9467C24.4532 10.8533 21.3866 9.93333 18.3066 10.44C14.1999 11.12 10.8799 14.4533 10.2399 18.5733C9.86655 20.9467 10.3199 23.2533 11.5332 25.2667C12.1732 26.3333 12.1999 27.6533 11.5999 28.7333L11.4266 29.04L12.3999 28.6667C12.7999 28.5067 13.2266 28.4267 13.6532 28.4267V28.44Z" fill="#FCFAF8"/>
<path d="M23.4536 22.6267C23.1736 22.2267 22.6402 22.0933 22.2002 22.32C22.1202 22.36 22.0402 22.4134 21.9602 22.4667C21.7736 22.5867 21.6269 22.7467 21.4936 22.9067C21.1869 23.28 20.6669 23.4267 20.2402 23.1867C19.4269 22.7467 18.7069 22.1067 18.1469 21.3067C17.5869 20.4933 17.2402 19.6 17.0936 18.6934C17.0136 18.2134 17.3202 17.7733 17.7869 17.6133C17.9869 17.5467 18.1736 17.4533 18.3602 17.32C18.4402 17.2667 18.5202 17.2 18.5869 17.1467C18.9469 16.8133 19.0002 16.2667 18.7202 15.8667L17.2536 13.7867C16.9736 13.3867 16.4402 13.2533 16.0002 13.48C15.9202 13.52 15.8402 13.5733 15.7602 13.6267C15.3602 13.9067 15.0669 14.3067 14.9202 14.7467C13.9736 17.36 14.2802 20.3733 15.9869 22.8267C17.3602 24.7867 19.4002 26 21.5736 26.44C21.9336 26.5067 22.2802 26.5867 23.0269 26.5867C23.6269 26.5867 24.0269 26.4533 24.3202 26.32C24.4002 26.28 24.4802 26.2267 24.5469 26.1733C24.6269 26.12 24.6936 26.0534 24.7736 26C25.1336 25.6667 25.1869 25.12 24.9069 24.72L23.4402 22.64L23.4536 22.6267Z" fill="#FCFAF8"/>
</g>
<defs>
<clipPath id="clip0_1555_1931">
<rect width="32" height="32" fill="white" transform="translate(4 4)"/>
</clipPath>
</defs>
</svg>
